nColumns=28
nRows=33
DataType=double
version=3
OpenSimVersion=4.1
endheader
time	ground_force_1_vx	ground_force_1_vy	ground_force_1_vz	ground_force_1_px	ground_force_1_py	ground_force_1_pz	ground_force_1_mx	ground_force_1_my	ground_force_1_mz	ground_force_2_vx	ground_force_2_vy	ground_force_2_vz	ground_force_2_px	ground_force_2_py	ground_force_2_pz	ground_force_2_mx	ground_force_2_my	ground_force_2_mz	ground_force_3_vx	ground_force_3_vy	ground_force_3_vz	ground_force_3_px	ground_force_3_py	ground_force_3_pz	ground_force_3_mx	ground_force_3_my	ground_force_3_mz
2.25	15.8224	519.493	-56.5996	-0.288656	0.006	-0.344343	0	-2.5679	0	17.3999	211.285	15.9443	-0.331322	0.006	-0.88569	0	1.94984	0	0	0	0	0	0	0	0	0	0
2.26	14.0906	536.946	-59.4233	-0.28737	0.006	-0.343997	0	-2.74522	0	17.0551	202.001	13.1037	-0.332544	0.006	-0.884414	0	1.92935	0	0	0	0	0	0	0	0	0	0
2.27	12.376	552.551	-61.8006	-0.286013	0.006	-0.343694	0	-2.91263	0	16.6466	194.121	10.5601	-0.33341	0.006	-0.883205	0	1.89317	0	0	0	0	0	0	0	0	0	0
2.28	10.7097	566.39	-63.7011	-0.284596	0.006	-0.34344	0	-3.06564	0	16.2178	187.675	8.32057	-0.333934	0.006	-0.882086	0	1.84352	0	0	0	0	0	0	0	0	0	0
2.29	9.12095	578.598	-65.1277	-0.28313	0.006	-0.343239	0	-3.20014	0	15.8036	182.652	6.39395	-0.334139	0.006	-0.881081	0	1.78286	0	0	0	0	0	0	0	0	0	0
2.3	7.62904	589.35	-66.11	-0.281622	0.006	-0.34309	0	-3.31258	0	15.436	178.973	4.77916	-0.334057	0.006	-0.880208	0	1.71358	0	0	0	0	0	0	0	0	0	0
2.31	6.2393	598.841	-66.6949	-0.280077	0.006	-0.342991	0	-3.40033	0	15.1503	176.496	3.45504	-0.333734	0.006	-0.879474	0	1.63795	0	0	0	0	0	0	0	0	0	0
2.32	4.9374	607.279	-66.9349	-0.278497	0.006	-0.342939	0	-3.46201	0	14.984	175.034	2.3797	-0.333226	0.006	-0.87887	0	1.55817	0	0	0	0	0	0	0	0	0	0
2.33	3.68872	614.892	-66.8779	-0.276881	0.006	-0.342929	0	-3.49783	0	14.9657	174.394	1.5027	-0.332586	0.006	-0.878381	0	1.47633	0	0	0	0	0	0	0	0	0	0
2.34	2.44349	621.935	-66.5597	-0.275227	0.006	-0.342956	0	-3.50991	0	15.1066	174.406	0.783083	-0.331854	0.006	-0.877987	0	1.39425	0	0	0	0	0	0	0	0	0	0
2.35	1.14604	628.693	-66.0072	-0.273531	0.006	-0.343017	0	-3.50249	0	15.3993	174.936	0.19744	-0.331055	0.006	-0.877677	0	1.31363	0	0	0	0	0	0	0	0	0	0
2.36	-0.255822	635.454	-65.2476	-0.271792	0.006	-0.343105	0	-3.48184	0	15.8256	175.877	-0.265296	-0.330201	0.006	-0.877441	0	1.2361	0	0	0	0	0	0	0	0	0	0
2.37	-1.80288	642.478	-64.3129	-0.27001	0.006	-0.343211	0	-3.45577	0	16.362	177.156	-0.610074	-0.329299	0.006	-0.877273	0	1.16296	0	0	0	0	0	0	0	0	0	0
2.38	-3.52333	650.001	-63.2384	-0.268191	0.006	-0.343326	0	-3.43296	0	16.9788	178.732	-0.835775	-0.328344	0.006	-0.877173	0	1.095	0	0	0	0	0	0	0	0	0	0
2.39	-5.43403	658.251	-62.0621	-0.266343	0.006	-0.343438	0	-3.42255	0	17.6383	180.587	-0.934205	-0.32733	0.006	-0.877143	0	1.03265	0	0	0	0	0	0	0	0	0	0
2.4	-7.54053	667.459	-60.8256	-0.264478	0.006	-0.343537	0	-3.43342	0	18.2964	182.702	-0.892694	-0.326248	0.006	-0.877186	0	0.976242	0	0	0	0	0	0	0	0	0	0
2.41	-9.83909	677.841	-59.5757	-0.262613	0.006	-0.343611	0	-3.4736	0	18.9037	185.072	-0.697854	-0.325087	0.006	-0.877305	0	0.925891	0	0	0	0	0	0	0	0	0	0
2.42	-12.3117	689.57	-58.362	-0.260769	0.006	-0.343649	0	-3.54981	0	19.4085	187.714	-0.337082	-0.323841	0.006	-0.877504	0	0.881419	0	0	0	0	0	0	0	0	0	0
2.43	-14.917	702.739	-57.2359	-0.258969	0.006	-0.34364	0	-3.66697	0	19.7618	190.668	0.200622	-0.322506	0.006	-0.877786	0	0.842399	0	0	0	0	0	0	0	0	0	0
2.44	-17.5885	717.34	-56.2487	-0.257241	0.006	-0.343575	0	-3.82777	0	19.9219	193.973	0.92222	-0.321082	0.006	-0.87815	0	0.808258	0	0	0	0	0	0	0	0	0	0
2.45	-20.2418	733.253	-55.4475	-0.255608	0.006	-0.343449	0	-4.03219	0	19.8596	197.656	1.82721	-0.319577	0.006	-0.878587	0	0.778103	0	0	0	0	0	0	0	0	0	0
2.46	-22.7878	750.248	-54.8722	-0.254095	0.006	-0.343256	0	-4.27731	0	19.563	201.728	2.90411	-0.318011	0.006	-0.879083	0	0.750701	0	0	0	0	0	0	0	0	0	0
2.47	-25.1431	767.995	-54.5533	-0.252717	0.006	-0.342996	0	-4.55733	0	19.0414	206.19	4.12817	-0.316418	0.006	-0.879614	0	0.724639	0	0	0	0	0	0	0	0	0	0
2.48	-27.2322	786.113	-54.5095	-0.251488	0.006	-0.342673	0	-4.86398	0	18.3248	211.018	5.46317	-0.314839	0.006	-0.880153	0	0.698493	0	0	0	0	0	0	0	0	0	0
2.49	-28.9859	804.218	-54.7466	-0.250417	0.006	-0.342293	0	-5.1871	0	17.458	216.164	6.86706	-0.313316	0.006	-0.880672	0	0.671002	0	0	0	0	0	0	0	0	0	0
2.5	-30.3431	821.964	-55.2546	-0.249511	0.006	-0.341865	0	-5.51558	0	16.4932	221.539	8.29601	-0.311883	0.006	-0.881144	0	0.64107	0	0	0	0	0	0	0	0	0	0
2.51	-31.2563	839.057	-56.0046	-0.248778	0.006	-0.341403	0	-5.83829	0	15.4865	227.013	9.70111	-0.310565	0.006	-0.881545	0	0.607869	0	0	0	0	0	0	0	0	0	0
2.52	-31.6985	855.228	-56.9515	-0.248218	0.006	-0.340923	0	-6.1446	0	14.4946	232.416	11.0246	-0.309377	0.006	-0.881855	0	0.570844	0	0	0	0	0	0	0	0	0	0
2.53	-31.6743	870.206	-58.0428	-0.247831	0.006	-0.340439	0	-6.42461	0	13.5691	237.557	12.2021	-0.30832	0.006	-0.882057	0	0.529635	0	0	0	0	0	0	0	0	0	0
2.54	-31.2228	883.706	-59.2255	-0.247608	0.006	-0.339966	0	-6.66913	0	12.7515	242.245	13.1713	-0.307391	0.006	-0.882138	0	0.483996	0	0	0	0	0	0	0	0	0	0
2.55	-30.4056	895.441	-60.4504	-0.247537	0.006	-0.339516	0	-6.8698	0	12.0724	246.314	13.8832	-0.306576	0.006	-0.882095	0	0.433873	0	0	0	0	0	0	0	0	0	0
2.56	-29.2944	905.155	-61.6742	-0.247603	0.006	-0.339101	0	-7.01945	0	11.5509	249.632	14.3091	-0.305857	0.006	-0.881933	0	0.379256	0	0	0	0	0	0	0	0	0	0
2.57	-27.9665	912.645	-62.8581	-0.247792	0.006	-0.338727	0	-7.11248	0	11.195	252.106	14.4439	-0.305213	0.006	-0.881665	0	0.320442	0	0	0	0	0	0	0	0	0	0
